<?xml version="1.0" encoding="utf-8"?>
<!-- Generator: Adobe Illustrator 26.4.1, SVG Export Plug-In . SVG Version: 6.00 Build 0)  -->
<svg version="1.1" id="Layer_1" xmlns="http://www.w3.org/2000/svg" xmlns:xlink="http://www.w3.org/1999/xlink" x="0px" y="0px"
	 viewBox="0 0 1138.79 578.28" style="enable-background:new 0 0 1138.79 578.28;" xml:space="preserve">
<style type="text/css">
	.st0{fill:#4DADE1;}
	.st1{fill:#F36F21;}
</style>
<g>
	<g>
		<path class="st0" d="M254.2,187.18c4.37,3.06,7.51,5.5,10.78,8.5c0.35,0.32,0.66,0.63,0.99,0.94
			c40.23-30.09,95.55-50.33,157.62-54.9c-8.82-0.65-17.76-0.99-26.83-0.99c-58.97,0-113.2,14.09-156.1,37.68
			C246.31,181.82,250.84,184.84,254.2,187.18z"/>
		<path class="st0" d="M198.82,315.38c0-20.43,5.07-40.04,14.36-58.26c-3.39-4.58-7.09-9.22-11.13-13.72
			c-4.76-5.32-11.04-12.24-19.92-19.18c-23.44,26.54-36.97,57.75-36.97,91.16c0,96.45,112.64,174.64,251.59,174.64
			c9.06,0,18.01-0.34,26.83-0.99C297.25,479.74,198.82,405.54,198.82,315.38z"/>
	</g>
	<g>
		<path class="st1" d="M253.93,354.09c0,19.29-3.59,37.97-10.32,55.71c9.91,9.65,22.66,20.43,38.6,30.76
			c12.72,8.24,24.94,14.52,35.96,19.39c25.1-31.07,39.51-67.24,39.51-105.86c0-115.74-129.27-209.57-288.73-209.57
			c-17.71,0-35.04,1.16-51.87,3.38C151.78,165.64,253.93,251.2,253.93,354.09z"/>
		<path class="st1" d="M271.39,469.84c-18.81-7.35-34.31-15.93-46.62-23.91c-39.62,58.88-116.13,102.29-207.7,114.35
			c16.83,2.22,34.16,3.38,51.87,3.38c94.79,0,178.92-33.16,231.56-84.37C291.48,476.93,281.69,473.87,271.39,469.84z"/>
	</g>
	<circle class="st1" cx="145.17" cy="68.9" r="48.77"/>
	<circle class="st0" cx="325.67" cy="68.9" r="32.01"/>
	<g>
		<path class="st1" d="M429.3,227.17c-2.8,2.31-4.21,5.36-4.21,9.16c0,3.8,1.71,6.82,5.14,9.07c3.42,2.24,11.34,4.89,23.74,7.94
			c12.4,3.06,22.03,7.64,28.88,13.74c6.85,6.11,10.28,15.02,10.28,26.73c0,11.72-4.39,21.22-13.18,28.51
			c-8.79,7.29-20.35,10.94-34.68,10.94c-20.69,0-39.32-7.66-55.89-22.99l17.38-21.31c14.08,12.34,27.11,18.51,39.07,18.51
			c5.36,0,9.56-1.15,12.62-3.46c3.05-2.3,4.58-5.42,4.58-9.35s-1.62-7.04-4.86-9.35c-3.24-2.3-9.66-4.64-19.25-7.01
			c-15.21-3.61-26.33-8.32-33.37-14.11c-7.04-5.79-10.56-14.89-10.56-27.29c0-12.4,4.45-21.97,13.37-28.69
			c8.91-6.73,20.03-10.1,33.37-10.1c8.72,0,17.45,1.5,26.17,4.49c8.72,2.99,16.33,7.23,22.81,12.71l-14.77,21.31
			c-11.34-8.6-23.06-12.9-35.14-12.9C435.93,223.71,432.1,224.86,429.3,227.17z"/>
		<path class="st1" d="M607.17,281.47c0,14.58-5.05,26.86-15.14,36.83c-10.1,9.97-22.78,14.96-38.04,14.96
			c-15.27,0-27.95-4.98-38.04-14.96c-10.1-9.97-15.14-22.25-15.14-36.83s5.05-26.89,15.14-36.92
			c10.09-10.03,22.77-15.05,38.04-15.05c15.26,0,27.95,5.02,38.04,15.05C602.12,254.59,607.17,266.89,607.17,281.47z M529.03,281.47
			c0,8.22,2.34,14.93,7.01,20.1c4.67,5.17,10.66,7.76,17.95,7.76s13.27-2.59,17.95-7.76c4.67-5.17,7.01-11.87,7.01-20.1
			c0-8.23-2.34-14.96-7.01-20.19c-4.67-5.23-10.66-7.85-17.95-7.85s-13.27,2.62-17.95,7.85
			C531.36,266.52,529.03,273.25,529.03,281.47z"/>
		<path class="st1" d="M668.48,308.39c9.35,0,17.76-4.67,25.24-14.02l16.64,18.69c-12.96,13.46-26.98,20.19-42.06,20.19
			c-15.08,0-27.82-4.77-38.23-14.3c-10.41-9.53-15.61-21.99-15.61-37.39c0-15.39,5.26-27.91,15.79-37.57
			c10.53-9.66,23.02-14.49,37.48-14.49c7.23,0,14.55,1.5,21.97,4.49c7.41,2.99,13.93,7.42,19.54,13.27l-14.58,19.07
			c-3.24-3.86-7.2-6.85-11.87-8.97c-4.67-2.12-9.32-3.18-13.93-3.18c-7.35,0-13.68,2.4-18.97,7.2c-5.3,4.8-7.94,11.47-7.94,20
			c0,8.54,2.65,15.17,7.94,19.91C655.18,306.03,661.38,308.39,668.48,308.39z"/>
		<path class="st1" d="M841.21,249.51l-35.33,71.41h-17.39l-35.14-71.41v82.25h-29.16V201.09h39.45l33.65,71.78l33.84-71.78h39.26
			v130.67h-29.16V249.51z"/>
		<path class="st1" d="M979.17,317.18c-11.34,10.72-24.65,16.08-39.91,16.08c-15.27,0-27.89-4.7-37.85-14.11
			c-9.97-9.41-14.96-22.03-14.96-37.85c0-15.83,5.08-28.41,15.23-37.76c10.16-9.35,22.15-14.02,35.99-14.02
			c13.83,0,25.58,4.18,35.24,12.52c9.66,8.35,14.49,19.82,14.49,34.4v14.96h-73.28c0.87,5.49,3.74,9.97,8.6,13.46
			c4.86,3.49,10.34,5.23,16.45,5.23c9.84,0,17.95-3.3,24.3-9.91L979.17,317.18z M952.25,257.54c-3.86-3.24-8.57-4.86-14.11-4.86
			c-5.55,0-10.63,1.68-15.24,5.05c-4.61,3.37-7.29,7.92-8.04,13.65h44.12C958.35,265.4,956.11,260.79,952.25,257.54z"/>
		<path class="st1" d="M1040.2,333.25c-11.9,0-22.53-5.05-31.87-15.14c-9.35-10.09-14.02-22.62-14.02-37.57s4.55-27.2,13.65-36.73
			c9.1-9.53,19.75-14.3,31.97-14.3c12.21,0,22.18,4.3,29.91,12.9v-49.35h28.04v138.71h-28.04v-13.27
			C1061.98,328.33,1052.1,333.25,1040.2,333.25z M1022.54,281.66c0,8.1,2.43,14.74,7.29,19.91c4.86,5.17,10.53,7.76,17.01,7.76
			c6.48,0,11.99-2.59,16.54-7.76c4.55-5.17,6.82-11.84,6.82-20c0-8.16-2.28-14.96-6.82-20.38c-4.55-5.42-10.13-8.13-16.73-8.13
			c-6.61,0-12.28,2.74-17.01,8.22C1024.9,266.77,1022.54,273.56,1022.54,281.66z"/>
	</g>
	<g>
		<path class="st0" d="M427.94,426.69c-5.59,0-10.72-0.9-15.39-2.71c-4.67-1.81-8.74-4.36-12.22-7.67
			c-3.48-3.31-6.17-7.21-8.08-11.71c-1.91-4.5-2.86-9.41-2.86-14.72c0-5.32,0.95-10.23,2.86-14.72c1.91-4.5,4.62-8.4,8.13-11.71
			c3.51-3.31,7.62-5.86,12.32-7.67c4.7-1.8,9.85-2.71,15.44-2.71c6.07,0,11.54,0.99,16.41,2.97c4.87,1.98,8.98,4.87,12.32,8.69
			l-8.39,8.18c-2.79-2.79-5.81-4.86-9.05-6.19c-3.24-1.33-6.8-1.99-10.69-1.99c-3.75,0-7.23,0.61-10.43,1.84
			c-3.21,1.23-5.97,2.97-8.28,5.22c-2.32,2.25-4.11,4.91-5.37,7.98c-1.26,3.07-1.89,6.44-1.89,10.12c0,3.61,0.63,6.95,1.89,10.02
			c1.26,3.07,3.05,5.74,5.37,8.03c2.32,2.29,5.04,4.04,8.18,5.27c3.13,1.23,6.61,1.84,10.43,1.84c3.54,0,6.97-0.56,10.28-1.69
			c3.31-1.13,6.46-3.02,9.46-5.68l7.57,9.92c-3.75,3-8.1,5.27-13.04,6.8C437.97,425.92,432.98,426.69,427.94,426.69z M443.38,415.85
			v-26.79h12.57v28.53L443.38,415.85z"/>
		<path class="st0" d="M467.3,425.66v-75.87h12.78v75.87H467.3z"/>
		<path class="st0" d="M516.48,426.38c-5.59,0-10.57-1.21-14.93-3.63s-7.8-5.74-10.33-9.97c-2.52-4.23-3.78-9.03-3.78-14.42
			c0-5.45,1.26-10.28,3.78-14.47c2.52-4.19,5.96-7.48,10.33-9.87c4.36-2.39,9.34-3.58,14.93-3.58c5.66,0,10.69,1.19,15.08,3.58
			c4.4,2.39,7.84,5.66,10.33,9.82c2.49,4.16,3.73,9,3.73,14.52c0,5.39-1.24,10.19-3.73,14.42c-2.49,4.23-5.93,7.55-10.33,9.97
			C527.17,425.17,522.14,426.38,516.48,426.38z M516.48,415.44c3.14,0,5.93-0.68,8.39-2.05c2.45-1.36,4.38-3.34,5.78-5.93
			c1.4-2.59,2.1-5.62,2.1-9.1c0-3.54-0.7-6.6-2.1-9.15c-1.4-2.56-3.32-4.52-5.78-5.88c-2.45-1.36-5.22-2.04-8.28-2.04
			c-3.14,0-5.91,0.68-8.33,2.04c-2.42,1.36-4.35,3.32-5.78,5.88s-2.15,5.61-2.15,9.15c0,3.48,0.72,6.51,2.15,9.1
			c1.43,2.59,3.36,4.57,5.78,5.93C510.67,414.76,513.41,415.44,516.48,415.44z"/>
		<path class="st0" d="M552.99,425.66v-75.87h12.78v33.95l-1.02,14.52l0.41,14.52v12.88H552.99z M583.25,426.38
			c-4.64,0-8.76-1.02-12.37-3.07c-3.61-2.05-6.46-5.13-8.54-9.25c-2.08-4.12-3.12-9.36-3.12-15.7c0-6.41,1.07-11.66,3.22-15.75
			c2.15-4.09,5.04-7.14,8.69-9.15c3.65-2.01,7.68-3.02,12.12-3.02c5.38,0,10.14,1.16,14.26,3.48c4.12,2.32,7.4,5.56,9.82,9.71
			c2.42,4.16,3.63,9.07,3.63,14.72c0,5.66-1.21,10.57-3.63,14.72c-2.42,4.16-5.69,7.41-9.82,9.77
			C593.39,425.21,588.64,426.38,583.25,426.38z M581.82,415.44c3.07,0,5.81-0.68,8.23-2.05c2.42-1.36,4.34-3.34,5.78-5.93
			c1.43-2.59,2.15-5.62,2.15-9.1c0-3.54-0.72-6.6-2.15-9.15c-1.43-2.56-3.36-4.52-5.78-5.88c-2.42-1.36-5.16-2.04-8.23-2.04
			c-3.07,0-5.83,0.68-8.28,2.04c-2.45,1.36-4.4,3.32-5.83,5.88c-1.43,2.56-2.15,5.61-2.15,9.15c0,3.48,0.72,6.51,2.15,9.1
			c1.43,2.59,3.38,4.57,5.83,5.93C575.99,414.76,578.75,415.44,581.82,415.44z"/>
		<path class="st0" d="M633.97,426.38c-4.09,0-7.67-0.7-10.74-2.1c-3.07-1.4-5.44-3.34-7.11-5.83c-1.67-2.49-2.5-5.3-2.5-8.44
			c0-3.07,0.73-5.83,2.2-8.28c1.47-2.45,3.87-4.4,7.21-5.83c3.34-1.43,7.77-2.15,13.29-2.15h15.85v8.49h-14.93
			c-4.36,0-7.3,0.7-8.79,2.1c-1.5,1.4-2.25,3.12-2.25,5.16c0,2.32,0.92,4.16,2.76,5.52c1.84,1.36,4.4,2.05,7.67,2.05
			c3.14,0,5.95-0.72,8.44-2.15c2.49-1.43,4.28-3.54,5.37-6.34l2.15,7.67c-1.23,3.2-3.43,5.69-6.6,7.46S638.81,426.38,633.97,426.38z
			 M651.15,425.66v-11.04l-0.72-2.35v-19.33c0-3.75-1.12-6.66-3.37-8.74c-2.25-2.08-5.66-3.12-10.23-3.12
			c-3.07,0-6.08,0.48-9.05,1.43c-2.96,0.96-5.47,2.29-7.51,3.99l-5.01-9.31c2.93-2.25,6.42-3.94,10.48-5.06
			c4.05-1.12,8.26-1.69,12.63-1.69c7.91,0,14.02,1.89,18.35,5.67c4.33,3.78,6.49,9.63,6.49,17.54v32H651.15z"/>
		<path class="st0" d="M674.66,425.66v-75.87h12.78v75.87H674.66z"/>
		<path class="st0" d="M754.62,426.69c-9.82,0-17.5-2.76-23.06-8.28c-5.56-5.52-8.33-13.5-8.33-23.93v-40.39h13.29v39.88
			c0,7.36,1.59,12.71,4.76,16.05c3.17,3.34,7.65,5.01,13.45,5.01c5.79,0,10.26-1.67,13.39-5.01c3.14-3.34,4.7-8.69,4.7-16.05v-39.88
			h13.09v40.39c0,10.43-2.78,18.41-8.33,23.93C772.02,423.93,764.37,426.69,754.62,426.69z"/>
		<path class="st0" d="M821.49,423.21c-5.18,0-9.87-1.11-14.06-3.32c-4.19-2.21-7.5-5.3-9.92-9.25c-2.42-3.95-3.63-8.59-3.63-13.91
			c0-5.25,1.21-9.85,3.63-13.8c2.42-3.95,5.73-7.02,9.92-9.2c4.19-2.18,8.88-3.27,14.06-3.27c4.63,0,8.79,0.92,12.47,2.76
			c3.68,1.84,6.63,4.7,8.84,8.59c2.21,3.89,3.32,8.86,3.32,14.93c0,6.07-1.11,11.06-3.32,14.98c-2.21,3.92-5.16,6.82-8.84,8.69
			C830.28,422.27,826.13,423.21,821.49,423.21z M823.13,446.22c-5.05,0-9.97-0.66-14.78-1.99c-4.81-1.33-8.74-3.25-11.81-5.78
			l5.73-9.61c2.38,1.98,5.4,3.56,9.05,4.75c3.65,1.19,7.35,1.79,11.1,1.79c6,0,10.39-1.38,13.19-4.14c2.8-2.76,4.19-6.9,4.19-12.42
			v-9.71l1.02-12.37l-0.41-12.37v-13.29h12.17v46.32c0,9.88-2.52,17.16-7.57,21.83C839.96,443.88,832.67,446.22,823.13,446.22z
			 M823.43,412.37c3.2,0,6.07-0.66,8.59-1.99c2.52-1.33,4.48-3.17,5.88-5.52c1.4-2.35,2.1-5.06,2.1-8.13c0-3.07-0.7-5.78-2.1-8.13
			c-1.4-2.35-3.36-4.16-5.88-5.42c-2.52-1.26-5.38-1.89-8.59-1.89c-3.2,0-6.08,0.63-8.64,1.89c-2.56,1.26-4.53,3.07-5.93,5.42
			c-1.4,2.35-2.1,5.06-2.1,8.13c0,3.07,0.7,5.78,2.1,8.13c1.39,2.35,3.37,4.19,5.93,5.52C817.35,411.71,820.23,412.37,823.43,412.37
			z"/>
		<path class="st0" d="M880.9,426.38c-4.09,0-7.67-0.7-10.74-2.1c-3.07-1.4-5.44-3.34-7.11-5.83c-1.67-2.49-2.5-5.3-2.5-8.44
			c0-3.07,0.73-5.83,2.2-8.28c1.47-2.45,3.87-4.4,7.21-5.83c3.34-1.43,7.77-2.15,13.29-2.15h15.85v8.49h-14.93
			c-4.36,0-7.3,0.7-8.79,2.1c-1.5,1.4-2.25,3.12-2.25,5.16c0,2.32,0.92,4.16,2.76,5.52c1.84,1.36,4.4,2.05,7.67,2.05
			c3.14,0,5.95-0.72,8.44-2.15c2.49-1.43,4.28-3.54,5.37-6.34l2.15,7.67c-1.23,3.2-3.43,5.69-6.6,7.46
			C889.74,425.5,885.74,426.38,880.9,426.38z M898.08,425.66v-11.04l-0.72-2.35v-19.33c0-3.75-1.12-6.66-3.37-8.74
			c-2.25-2.08-5.66-3.12-10.23-3.12c-3.07,0-6.08,0.48-9.05,1.43c-2.96,0.96-5.47,2.29-7.51,3.99l-5.01-9.31
			c2.93-2.25,6.42-3.94,10.48-5.06c4.05-1.12,8.26-1.69,12.63-1.69c7.91,0,14.02,1.89,18.35,5.67c4.33,3.78,6.49,9.63,6.49,17.54v32
			H898.08z"/>
		<path class="st0" d="M952.57,370.45c4.36,0,8.26,0.85,11.71,2.56c3.44,1.7,6.15,4.31,8.13,7.82c1.98,3.51,2.96,8.03,2.96,13.55
			v31.29H962.6v-29.65c0-4.84-1.14-8.45-3.43-10.84c-2.29-2.39-5.47-3.58-9.56-3.58c-3,0-5.66,0.61-7.98,1.84
			c-2.32,1.23-4.11,3.05-5.37,5.47c-1.26,2.42-1.89,5.47-1.89,9.15v27.61h-12.78v-54.6h12.17v14.72l-2.15-4.5
			c1.91-3.48,4.69-6.15,8.33-8.03C943.59,371.39,947.8,370.45,952.57,370.45z"/>
		<path class="st0" d="M1009.94,426.38c-5.25,0-9.97-1.17-14.16-3.53c-4.19-2.35-7.48-5.61-9.87-9.77
			c-2.39-4.16-3.58-9.07-3.58-14.72c0-5.66,1.19-10.57,3.58-14.72c2.39-4.16,5.67-7.4,9.87-9.71c4.19-2.32,8.91-3.48,14.16-3.48
			c4.57,0,8.66,1.01,12.27,3.02c3.61,2.01,6.47,5.06,8.59,9.15c2.11,4.09,3.17,9.34,3.17,15.75c0,6.34-1.02,11.57-3.07,15.7
			c-2.05,4.12-4.87,7.21-8.49,9.25S1014.64,426.38,1009.94,426.38z M1011.47,415.44c3.07,0,5.81-0.68,8.23-2.05
			c2.42-1.36,4.36-3.34,5.83-5.93c1.47-2.59,2.2-5.62,2.2-9.1c0-3.54-0.73-6.6-2.2-9.15c-1.47-2.56-3.41-4.52-5.83-5.88
			c-2.42-1.36-5.16-2.04-8.23-2.04c-3.07,0-5.81,0.68-8.23,2.04c-2.42,1.36-4.36,3.32-5.83,5.88c-1.47,2.56-2.2,5.61-2.2,9.15
			c0,3.48,0.73,6.51,2.2,9.1c1.47,2.59,3.41,4.57,5.83,5.93C1005.66,414.76,1008.4,415.44,1011.47,415.44z M1028.03,425.66v-12.88
			l0.51-14.52l-1.02-14.52v-33.95h12.68v75.87H1028.03z"/>
		<path class="st0" d="M1068.63,426.38c-4.09,0-7.67-0.7-10.74-2.1c-3.07-1.4-5.44-3.34-7.11-5.83c-1.67-2.49-2.5-5.3-2.5-8.44
			c0-3.07,0.73-5.83,2.2-8.28c1.47-2.45,3.87-4.4,7.21-5.83c3.34-1.43,7.77-2.15,13.29-2.15h15.85v8.49h-14.93
			c-4.36,0-7.3,0.7-8.79,2.1c-1.5,1.4-2.25,3.12-2.25,5.16c0,2.32,0.92,4.16,2.76,5.52c1.84,1.36,4.4,2.05,7.67,2.05
			c3.14,0,5.95-0.72,8.44-2.15c2.49-1.43,4.28-3.54,5.37-6.34l2.15,7.67c-1.23,3.2-3.43,5.69-6.6,7.46
			S1073.47,426.38,1068.63,426.38z M1085.8,425.66v-11.04l-0.72-2.35v-19.33c0-3.75-1.12-6.66-3.37-8.74
			c-2.25-2.08-5.66-3.12-10.23-3.12c-3.07,0-6.08,0.48-9.05,1.43c-2.96,0.96-5.47,2.29-7.51,3.99l-5.01-9.31
			c2.93-2.25,6.42-3.94,10.48-5.06c4.05-1.12,8.26-1.69,12.63-1.69c7.91,0,14.02,1.89,18.35,5.67c4.33,3.78,6.49,9.63,6.49,17.54v32
			H1085.8z"/>
	</g>
</g>
</svg>
